<svg xmlns="http://www.w3.org/2000/svg" fill="none" viewBox="0 0 390 264">
  <g clip-path="url(#clip0_4712_255315)">
    <path fill="#D0E3E5" d="M0 0h390v264H0z"/>
    <g clip-path="url(#clip1_4712_255315)">
      <path fill="#D0E3E5" d="M-123 0h513v264h-513z"/>
      <path fill="#E5EFF0" d="M-161 264V0h367.9C289.94 49.79 344 131.15 344 223c0 13.74-1.24 27.45-3.68 41H-161z"/>
      <path fill="#006169" d="M158.28 254.22a9.34 9.34 0 0 1-9.34-9.41c0-4.16 3.6-21.12 9.34-21.12 5.75 0 9.28 16.9 9.28 21.12a9.35 9.35 0 0 1-9.28 9.34v.07z"/>
      <path fill="#B29F32" d="M157.45 263.5v-14.54l-4.43-4.43 1.11-1.1 3.32 3.38v-9h1.6v5.06l2.56-2.56 1.1 1.1-3.66 3.68v18.4h-1.6z"/>
      <path fill="#4C9095" d="M129.62 248.13a19.37 19.37 0 0 1-19.45-19.38c0-8.66 7.68-44.52 19.38-44.52s19.39 35.86 19.39 44.52a19.39 19.39 0 0 1-19.39 19.38h.07z"/>
      <path fill="#E5CC41" d="M128.24 263.43v-33.92l-8.52-8.59 1.8-1.8 6.79 6.72v-16.06h2.5v9.69l5.53-5.54 1.8 1.87-7.34 7.27v11.77l5.54-5.54 1.8 1.8-7.34 7.34v25h-2.56z"/>
      <path fill="#fff" d="M186.53 227.64h172.39v35.17H186.53v-35.17z"/>
      <path fill="#B8E0E6" d="M193.73 225.63h27.2v37.18h-27.2v-37.18z"/>
      <path fill="#006169" d="M193.66 231.1h27.28v11.77l-27.28-11.77z"/>
      <path fill="url(#paint0_linear_4712_255315)" d="M235.96 227.64h23.54v34.27h-23.54v-34.26z"/>
      <path fill="url(#paint1_linear_4712_255315)" d="M259.43 227.64h23.54v34.27h-23.54v-34.26z"/>
      <path fill="#B2CFD1" d="M233.95 262.8v-38.14h51.03v38.15h-51.03zm49.02-2v-34.13h-22.5v34.13h22.5zm-47.08 0h22.56v-34.13h-22.5l-.07 34.13z"/>
      <path fill="url(#paint2_linear_4712_255315)" d="M296.6 227.64h23.55v34.27H296.6v-34.26z"/>
      <path fill="url(#paint3_linear_4712_255315)" d="M320.08 227.64h23.54v34.27h-23.54v-34.26z"/>
      <path fill="#B2CFD1" d="M294.6 262.8v-38.14h51.02v38.15H294.6zm49.02-2v-34.13h-22.5v34.13h22.5zm-47.01 0h22.5v-34.13h-22.5v34.13z"/>
      <path fill="#222" fill-opacity=".1" d="M221 231.17H359l-13.44 11.7H221.01v-11.7z"/>
      <path fill="#006169" d="M233.47 192.6c0-.96.34-1.72.76-1.72h48.46c.35 0 .7.76.7 1.66v20.77c0 .9-.35 1.66-.7 1.66h-48.46c-.41 0-.7-.7-.7-1.66l-.06-20.7z"/>
      <path fill="#148A9B" d="M195.74 190.88h27.55a2.08 2.08 0 0 1 2 2.07V219a2.08 2.08 0 0 1-2.08 2.07h-27.48a2.07 2.07 0 0 1-2.08-2.07v-26.04a2.08 2.08 0 0 1 2.08-2.07zm83.28-29.5h58.85a2.08 2.08 0 0 1 2.08 2.01v56.5a2.08 2.08 0 0 1-2.08 2h-58.85a2.07 2.07 0 0 1-2-2.07v-56.43a2.07 2.07 0 0 1 2.07-2.07l-.07.06z"/>
      <path fill="#B8E0E6" d="M228.62 170.6l13.85 20.28v28.94h-13.85v-49.23z"/>
      <path fill="url(#paint4_linear_4712_255315)" d="M283.38 183.81h14.13v33.03h-14.13V183.8z"/>
      <path fill="url(#paint5_linear_4712_255315)" d="M305.88 180.7h50.54a2.02 2.02 0 0 1 2.08 2.08v34.13h-54.62v-34.2a2 2 0 0 1 2-2z"/>
      <path fill="#148A9B" d="M329.7 183.81h23.54v33.03H329.7V183.8z"/>
      <path fill="#006169" d="M329.7 183.81v17.31l23.54-17.3H329.7z"/>
      <path fill="#fff" d="M221 170.6h7.62v48.1h-7.61v-48.1zm54 42.08v-12.46h-4.84v12.46h-2.08v-12.46h-4.84v12.46h-2.08v-12.46h-4.85v12.46h-2.07v-12.46h-4.85v12.46h-2.09v-12.46h-4.84v12.46h-2.08v-12.46h-4.84v12.46h-2.08v-14.4h43.61v14.4h-2.07z"/>
      <path fill="url(#paint6_linear_4712_255315)" d="M283.38 167h14.13v11.9h-14.13V167z"/>
      <path fill="#4C9095" d="M178.99 212.55H366.8a2.08 2.08 0 0 1 2.07 2v14.68a2.08 2.08 0 0 1-2.07 2.08H178.99a2.07 2.07 0 0 1-2.01-2.08v-14.68a2.08 2.08 0 0 1 2.07-2.07l-.06.07z"/>
      <path fill="#004449" d="M351.1 142a22.64 22.64 0 1 1 0 45.27 22.64 22.64 0 0 1 0-45.27z"/>
      <path fill="#fff" d="M341.26 164.22a.7.7 0 0 1 0-.9l2.7-2.97a.69.69 0 0 1 .9 0l4.7 4.36a.7.7 0 0 0 .9 0l9.22-11.29c.27-.2.69-.34.9-.07l3.11 2.57a.69.69 0 0 1 0 .9l-12.74 15.57c-.2.21-.55.35-.69.14l-9-8.3z"/>
      <path fill="#fff" d="M354.62 170.38c3.81.42 6.51 1.53 6.51 2.7 0 1.6-4.98 2.98-11.08 2.98-6.09 0-10.94-1.38-10.94-2.97 0-1.18 2.57-2.29 6.38-2.78.06.28.34.35.4.56-2.55.48-4.28 1.18-4.28 2.08 0 1.31 3.88 2.28 8.58 2.28s8.66-1.1 8.66-2.28c0-.9-1.8-1.66-4.57-2.08 0-.2.27-.42.34-.56"/>
    </g>
  </g>
  <defs>
    <linearGradient id="paint0_linear_4712_255315" x1="235.96" x2="265.88" y1="227.64" y2="250.47" gradientUnits="userSpaceOnUse">
      <stop stop-color="#B8E0E6"/>
      <stop offset="1" stop-color="#fff"/>
    </linearGradient>
    <linearGradient id="paint1_linear_4712_255315" x1="259.43" x2="289.35" y1="227.64" y2="250.47" gradientUnits="userSpaceOnUse">
      <stop stop-color="#B8E0E6"/>
      <stop offset="1" stop-color="#fff"/>
    </linearGradient>
    <linearGradient id="paint2_linear_4712_255315" x1="296.61" x2="326.52" y1="227.64" y2="250.47" gradientUnits="userSpaceOnUse">
      <stop stop-color="#B8E0E6"/>
      <stop offset="1" stop-color="#fff"/>
    </linearGradient>
    <linearGradient id="paint3_linear_4712_255315" x1="320.08" x2="349.99" y1="227.64" y2="250.47" gradientUnits="userSpaceOnUse">
      <stop stop-color="#B8E0E6"/>
      <stop offset="1" stop-color="#fff"/>
    </linearGradient>
    <linearGradient id="paint4_linear_4712_255315" x1="297.51" x2="309.38" y1="190.42" y2="189.15" gradientUnits="userSpaceOnUse">
      <stop stop-color="#B8E0E6"/>
      <stop offset="1" stop-color="#fff"/>
    </linearGradient>
    <linearGradient id="paint5_linear_4712_255315" x1="309.34" x2="384.79" y1="216.91" y2="98.13" gradientUnits="userSpaceOnUse">
      <stop stop-color="#B8E0E6"/>
      <stop offset="1" stop-color="#fff"/>
    </linearGradient>
    <linearGradient id="paint6_linear_4712_255315" x1="290.45" x2="295.62" y1="166.99" y2="185.39" gradientUnits="userSpaceOnUse">
      <stop stop-color="#B8E0E6"/>
      <stop offset="1" stop-color="#fff"/>
    </linearGradient>
    <clipPath id="clip0_4712_255315">
      <path fill="#fff" d="M0 0h390v264H0z"/>
    </clipPath>
    <clipPath id="clip1_4712_255315">
      <path fill="#fff" d="M0 0h513v264H0z" transform="translate(-123)"/>
    </clipPath>
  </defs>
</svg>
